HIERARCHY
ROOT Hips
{
    OFFSET 0.0 0.0 0.0
    CHANNELS 6 Xposition Yposition Zposition Zrotation Xrotation Yrotation
    JOINT LHipJoint
    {
        OFFSET 0.1 0.0 0.0
        CHANNELS 3 Zrotation Xrotation Yrotation
        JOINT LeftHip
        {
            OFFSET 0.11000192165374756 0.0 0.0
            CHANNELS 3 Zrotation Xrotation Yrotation
            JOINT LeftKnee
            {
                OFFSET 0.0 0.0 -0.4222407639026642
                CHANNELS 3 Zrotation Xrotation Yrotation
                JOINT LeftAnkle
                {
                    OFFSET 0.0 0.0 -0.4368409514427185
                    CHANNELS 3 Zrotation Xrotation Yrotation
                    End Site
                    {
                        OFFSET 0.0 -0.1 0.0
                    }
                }
            }
        }
    }
    JOINT lowerback
    {
        OFFSET 0.0 0.0 0.1
        CHANNELS 3 Zrotation Xrotation Yrotation
        JOINT Chest
        {
            OFFSET 0.0 0.0 0.2306453287601471
            CHANNELS 3 Zrotation Xrotation Yrotation
            JOINT Chest2
            {
                OFFSET 0.0 0.0 0.256412148475647
                CHANNELS 3 Zrotation Xrotation Yrotation
                JOINT LeftCollar
                {
                    OFFSET 0.1 0.0 0.0
                    CHANNELS 3 Zrotation Xrotation Yrotation
                    JOINT LeftShoulder
                    {
                        OFFSET 0.13319158554077148 0.0 0.0
                        CHANNELS 3 Zrotation Xrotation Yrotation
                        JOINT LeftElbow
                        {
                            OFFSET 0.26294779777526855 0.0 0.0
                            CHANNELS 3 Zrotation Xrotation Yrotation
                            JOINT LeftWrist
                            {
                                OFFSET 0.2235489934682846 0.0 0.0
                                CHANNELS 3 Zrotation Xrotation Yrotation
                                End Site
                                {
                                    OFFSET 0.1 0.0 0.0
                                }
                            }
                        }
                    }
                }
                JOINT Neck
                {
                    OFFSET 0.0 0.0 0.1
                    CHANNELS 3 Zrotation Xrotation Yrotation
                    JOINT Head
                    {
                        OFFSET 0.0 0.0 0.11135430634021759
                        CHANNELS 3 Zrotation Xrotation Yrotation
                        End Site
                        {
                            OFFSET 0.0 0.0 0.11683301627635956
                        }
                    }
                }
                JOINT RightCollar
                {
                    OFFSET -0.1 0.0 0.0
                    CHANNELS 3 Zrotation Xrotation Yrotation
                    JOINT RightShoulder
                    {
                        OFFSET -0.13319158554077148 0.0 0.0
                        CHANNELS 3 Zrotation Xrotation Yrotation
                        JOINT RightElbow
                        {
                            OFFSET -0.26294779777526855 0.0 0.0
                            CHANNELS 3 Zrotation Xrotation Yrotation
                            JOINT RightWrist
                            {
                                OFFSET -0.2235489934682846 0.0 0.0
                                CHANNELS 3 Zrotation Xrotation Yrotation
                                End Site
                                {
                                    OFFSET -0.1 0.0 0.0
                                }
                            }
                        }
                    }
                }
            }
        }
    }
    JOINT RHipJoint
    {
        OFFSET -0.1 0.0 0.0
        CHANNELS 3 Zrotation Xrotation Yrotation
        JOINT RightHip
        {
            OFFSET -0.11000192165374756 0.0 0.0
            CHANNELS 3 Zrotation Xrotation Yrotation
            JOINT RightKnee
            {
                OFFSET 0.0 0.0 -0.4222407639026642
                CHANNELS 3 Zrotation Xrotation Yrotation
                JOINT RightAnkle
                {
                    OFFSET 0.0 0.0 -0.4368409514427185
                    CHANNELS 3 Zrotation Xrotation Yrotation
                    End Site
                    {
                        OFFSET 0.0 -0.1 0.0
                    }
                }
            }
        }
    }
}
MOTION
Frames: 9
Frame Time: 0.03333333333333333
-4.421587618708145e-06 0.8666039109230042 -4.886669557890855e-06 -96.84911961202414 -47.324361464183156 -97.5250665170283 -3.1805546814635164e-15 1.5902773407317584e-15 -3.1805546814635164e-15 -0.05020705606058193 -0.6677183433210074 1.7584701598253205 1.102378973330229 9.932406350196908 0.4874651168315759 -3.1805546814635164e-15 7.951386703658791e-16 2.2069531490250793e-32 -3.1805546814635164e-15 1.5902773407317584e-15 -3.1805546814635164e-15 0.6795046603968633 8.532896821893601 1.346906408506079 0.20823923830424734 -2.4452550637819773e-06 5.930222574565372e-07 0.0 -5.565970692561152e-15 0.0 -24.01542161742116 5.194370351794514 75.63596054746876 -29.141091226535792 -2.99571089248747e-06 7.610120093604976e-07 0.0 -3.379339349054987e-15 0.0 0.0 -5.565970692561152e-15 0.0 1.315308281681709 -6.309880550858454 -5.944244377600665 0.0 -5.565970692561152e-15 0.0 19.60936639230302 5.3177187750433585 -74.4945146207232 33.44896150146286 -3.076122934480105e-07 9.983963474124909e-07 0.0 -6.3611093629270335e-15 0.0 -3.1805546814635164e-15 1.5902773407317584e-15 -3.1805546814635164e-15 -0.09035304568341276 -1.109563236277497 -5.742475091120988 -0.23378862445834775 10.899737272138204 -0.4238158998808658 -6.3611093629270335e-15 7.951386703658794e-16 -3.1805546814635168e-15
-4.333057404437568e-06 0.8666037917137146 -4.820191861654166e-06 -96.89009564275568 -47.52799343426022 -97.53584724745191 6.361109362927033e-15 1.7655625192200634e-31 3.1805546814635164e-15 -0.0682150847355043 -0.9045797439066634 1.7229779067179471 1.1280081307492473 10.284394312614523 0.3391961622386613 -1.5448672043175555e-31 5.5659706925611536e-15 3.1805546814635164e-15 6.361109362927033e-15 1.7655625192200634e-31 3.1805546814635164e-15 0.6712302199303904 8.509901038805115 1.4109983638319266 0.22147738482312282 3.994353520632155e-06 4.1223910273204427e-07 0.0 0.0 0.0 -24.01257666471822 5.316444413824154 75.73563352809963 -29.516797575862583 8.91069624695871e-07 -1.8857124840689254e-06 5.517382872562698e-33 1.9878466759146975e-16 -3.180554681463516e-15 0.0 0.0 0.0 1.1538928799057888 -6.365805126369953 -6.025542336982125 0.0 0.0 0.0 19.479997054835522 5.621057868584766 -74.2236331050226 33.73197316426479 -1.0173597057280005e-06 -1.0032946500251466e-06 0.0 -6.361109362927035e-15 0.0 6.361109362927033e-15 1.7655625192200634e-31 3.1805546814635164e-15 -0.10810080195678015 -1.3461647853114878 -5.827693975331869 -0.2618296074517126 11.042896163095582 -0.37620399094965 -8.827812596100317e-32 6.361109362927033e-15 1.5902773407317582e-15
-4.156658178544603e-06 0.8666037917137146 -4.685809471993707e-06 -96.66678807824668 -47.629017668187295 -97.47037273873781 0.0 0.0 0.0 -0.10007439053324815 -1.3073100887445355 1.8207468359730683 1.2016992333585776 10.74934833282306 0.07562172901577645 -1.7655625192200634e-31 -6.3611093629270335e-15 -3.1805546814635168e-15 0.0 0.0 0.0 0.6606466249194071 8.352839380353508 1.578777798713636 0.1394827807714067 -8.629626912190455e-07 1.4476155101975493e-06 0.0 0.0 0.0 -23.532747468883816 5.169221676379901 75.72702127101358 -29.475850730579072 -2.297718516643488e-06 -2.3127410143040156e-06 0.0 3.975693351829396e-16 0.0 0.0 0.0 0.0 0.41695247555372633 -6.732175334845534 -6.111012046216891 0.0 0.0 0.0 19.018660933851965 5.764758750380674 -73.87603798118292 33.91175306395465 -1.8540335711723827e-06 2.255938408669889e-06 0.0 0.0 6.361109362927033e-15 0.0 0.0 0.0 -0.1482525420357918 -1.8529593066428547 -5.744191415637513 -0.2509939517121042 11.41051124346408 -0.35050324452925596 8.827812596100317e-32 -6.361109362927033e-15 1.5902773407317582e-15
-4.197901944280602e-06 0.8666037321090698 -4.691929461841937e-06 -96.60259553180447 -47.69038528611977 -97.45366928492612 0.0 6.3611093629270335e-15 0.0 -0.11111053351804191 -1.4595232187118967 1.9166072758570365 1.2375103727706684 10.955585882400726 0.01777624687385489 -3.1805546814635164e-15 6.361109362927033e-15 1.7655625192200634e-31 0.0 6.3611093629270335e-15 0.0 0.6435529477423012 8.201168614875007 1.569223792797376 0.15872788939595242 9.947167388092279e-07 -5.770656205316978e-08 6.3611093629270335e-15 -7.156248033292914e-15 3.972515668245143e-31 -23.698385666963663 5.150590963251307 75.6209616635833 -29.6495991859386 -2.4333434219496645e-06 -4.756280486611685e-08 5.517382872562698e-33 -1.987846675914698e-16 3.1805546814635168e-15 6.3611093629270335e-15 -7.156248033292914e-15 3.972515668245143e-31 0.8019848441288586 -6.765434707677334 -5.964439160441167 6.3611093629270335e-15 -7.156248033292914e-15 3.972515668245143e-31 18.10166949677064 6.014505866173197 -73.3880459253463 34.53670736944299 1.5991573949107407e-07 3.995373888284794e-06 -3.1805546814635176e-15 -3.1805546814635176e-15 -8.827812596100317e-32 0.0 6.3611093629270335e-15 0.0 -0.1459151012675844 -1.8368560643940177 -5.632663577562114 -0.23661082803726874 11.469795895814928 -0.5130840014123712 3.1805546814635164e-15 6.361109362927033e-15 1.590277340731758e-15
-4.492212610784918e-06 0.866603672504425 -4.749918844026979e-06 -96.62096615127687 -47.590211622852095 -97.48044205757805 -6.3611093629270335e-15 1.7655625192200634e-31 -3.1805546814635168e-15 -0.0949230354182481 -1.2241175380224945 2.024714858979102 1.2438085434963884 10.65878080012836 0.10400542046952929 3.1805546814635164e-15 5.565970692561154e-15 6.3611093629270335e-15 -6.3611093629270335e-15 1.7655625192200634e-31 -3.1805546814635168e-15 0.6712438164271631 8.353610354902237 1.4884178947051607 0.04640898203169564 -9.242705465547882e-07 5.992804039290369e-08 3.1805546814635164e-15 7.951386703658791e-16 -2.2069531490250793e-32 -25.508010269882913 5.444643208656027 75.19965782180797 -30.166274537075562 -2.3147739020784046e-06 -1.2971732958673537e-06 0.0 0.0 0.0 3.1805546814635164e-15 7.951386703658791e-16 -2.2069531490250793e-32 0.9107184509119828 -7.052397896887598 -5.8324613080569225 3.1805546814635164e-15 7.951386703658791e-16 -2.2069531490250793e-32 17.115369656260647 5.71476542404036 -73.01344322065728 34.80949741193998 -5.068523246544503e-06 2.3168839151897184e-06 0.0 3.180554681463516e-15 0.0 -6.3611093629270335e-15 1.7655625192200634e-31 -3.1805546814635168e-15 -0.13379875789237614 -1.641268358147676 -5.515210662348128 -0.18654509981872552 11.181349608778364 -0.7352107419062862 0.0 0.0 0.0
-4.4211165004526265e-06 0.8666037321090698 -4.6580471462220885e-06 -96.63863178458077 -47.388404112578876 -97.26131295926413 -1.7655625192200634e-31 6.361109362927033e-15 3.1805546814635164e-15 -0.10476159248528623 -1.298842575813862 1.7706872093626753 1.2380383372995423 10.738615415198948 -0.02455327597806772 -3.1805546814635168e-15 -6.3611093629270335e-15 -3.1805546814635168e-15 -1.7655625192200634e-31 6.361109362927033e-15 3.1805546814635164e-15 0.689490939211614 8.264725154674895 1.1709310933558086 -0.16167530946203454 -5.621537835188851e-07 -7.228278204135081e-07 6.361109362927033e-15 1.7655625192200634e-31 3.1805546814635164e-15 -25.463044298414133 5.585751881953749 75.3193617468718 -30.015976882901548 -1.36630329420772e-06 -6.692021270951894e-07 6.3611093629270335e-15 1.5902773407317584e-15 -8.827812596100317e-32 6.361109362927033e-15 1.7655625192200634e-31 3.1805546814635164e-15 1.466932680147123 -6.621596205118618 -6.253375786305356 6.361109362927033e-15 1.7655625192200634e-31 3.1805546814635164e-15 16.91458041268548 5.904765394407056 -72.31622781421501 35.286098566076866 -1.2351492806029203e-06 2.331743483496496e-06 6.3611093629270335e-15 3.1805546814635168e-15 -1.7655625192200634e-31 -1.7655625192200634e-31 6.361109362927033e-15 3.1805546814635164e-15 -0.14055982728784605 -1.6611843073356147 -5.771183165016164 -0.1999779375012515 11.036965838861846 -0.7273329127412512 -6.3611093629270335e-15 -8.827812596100317e-32 1.5902773407317584e-15
-4.3317340896464884e-06 0.866603672504425 -4.563623406284023e-06 -96.86528637581114 -47.283620428130085 -97.27676085724154 -1.7655625192200634e-31 -6.361109362927035e-15 -3.1805546814635176e-15 -0.08603458088988697 -1.0294438511559463 1.685798266038663 1.2435131813185214 10.598089535497628 -0.1452553176293719 -3.1805546814635176e-15 -7.951386703658796e-16 3.1805546814635176e-15 -1.7655625192200634e-31 -6.361109362927035e-15 -3.1805546814635176e-15 0.7363904922703007 8.46195677303207 1.0879958467819113 -0.4794856390725527 1.2997951950568508e-06 3.029874532526427e-06 0.0 0.0 -3.1805546814635164e-15 -25.705137801102627 5.478103054522891 75.48283796877506 -30.705400986174517 -2.8738639733579453e-06 -2.0979283329888836e-06 0.0 0.0 3.1805546814635168e-15 0.0 0.0 -3.1805546814635164e-15 1.591608458229946 -6.164481910161735 -6.390411486234783 0.0 0.0 -3.1805546814635164e-15 15.228803728377482 5.4787651578088425 -72.04023655430824 36.196829483757014 1.1821931528227426e-06 -2.9672209749877664e-06 0.0 0.0 -6.361109362927035e-15 -1.7655625192200634e-31 -6.361109362927035e-15 -3.1805546814635176e-15 -0.1326865312801126 -1.501211940773126 -5.983636331121368 -0.19968437181547596 10.90551723973332 -0.6861223036885092 6.361109362927032e-15 -7.951386703658788e-16 4.7708320221952736e-15
-4.269480996299535e-06 0.8666038513183594 -4.577496838464867e-06 -96.93880906122469 -46.99728798259374 -97.02480292257658 -1.7655625192200634e-31 6.361109362927033e-15 3.1805546814635164e-15 -0.051224046626655736 -0.591365453947076 1.4507408486149627 1.1983711743788596 10.140594264314709 -0.20819186702525155 -3.1805546814635176e-15 0.0 0.0 -1.7655625192200634e-31 6.361109362927033e-15 3.1805546814635164e-15 0.7895240268093883 8.566359354194622 0.8690323634940927 -0.7358261467229822 5.388442178943492e-08 -4.703535110326214e-07 0.0 0.0 -3.1805546814635164e-15 -26.712467484953724 5.9529105486037 75.27376523537087 -31.26746451679349 7.668469593707535e-07 1.188155355645403e-06 0.0 -3.1805546814635176e-15 0.0 0.0 0.0 -3.1805546814635164e-15 1.321019864689794 -5.934891401937835 -6.375291674751023 0.0 0.0 -3.1805546814635164e-15 12.927272856795092 4.973529829778057 -71.50294053002315 37.23124037442377 -2.276896998335589e-06 -6.279597522871808e-07 0.0 6.361109362927035e-15 0.0 -1.7655625192200634e-31 6.361109362927033e-15 3.1805546814635164e-15 -0.10984173815861832 -1.168221334955421 -6.208139229367072 -0.18334417042743162 10.679063071613404 -0.7814335180454682 0.0 0.0 -1.5902773407317584e-15
-4.001023626187816e-06 0.866604208946228 -4.57957594335312e-06 -97.05472444551181 -47.14786889435705 -96.99019629699937 -3.1805546814635168e-15 0.0 0.0 -0.040535093363220163 -0.44586806072833873 1.43773589109777 1.2342028810819927 9.9611754142994 -0.4139036696899387 -6.3611093629270335e-15 -7.95138670365879e-16 -3.1805546814635168e-15 -3.1805546814635168e-15 0.0 0.0 0.842899804288864 8.58970739417197 0.6916476456623961 -0.818465409383061 6.533706082768893e-08 5.429211827331665e-07 0.0 0.0 0.0 -26.349918157610787 6.026624885864443 75.43473679037332 -31.435243631651478 2.7247496474264215e-06 1.4549791386135756e-06 0.0 0.0 0.0 0.0 0.0 0.0 0.8205428480193643 -5.799947632322657 -6.108870008180554 0.0 0.0 0.0 9.976104989172722 4.067899712422426 -70.98725756807933 37.67626646453553 -1.9207425567320617e-06 6.796420501509695e-07 3.1805546814635168e-15 0.0 0.0 -3.1805546814635168e-15 0.0 0.0 -0.10307552172410724 -1.0276701146009928 -6.387278272155241 -0.15500343096900274 10.762255946438188 -0.9324680274212843 -9.931289170612858e-32 -7.156248033292914e-15 -1.5902773407317584e-15
